<svg width="450" height="450" viewBox="0 0 450 450" fill="none" xmlns="http://www.w3.org/2000/svg">
<rect width="450" height="450" fill="black"/>
<path d="M182.84 100.08C179.686 101.22 176.593 101.561 173.414 101.337C162.223 100.547 152.95 90.5505 153.339 79.6251C153.54 74.0047 155.811 69.1705 159.408 64.9878C166.845 56.3397 176.286 52.336 187.732 53.3104C192.311 53.7 195.82 55.2708 200.729 58.965C207.734 52.6075 216.169 49.993 225.504 49.9999C234.809 50.0069 243.225 52.5915 250.28 59.0013C252.356 57.1366 254.648 55.6812 257.242 54.7422C263.977 52.304 270.703 52.6594 277.348 55.0238C284.531 57.5796 290.192 62.1054 294.177 68.6216C302.627 82.4385 294.666 96.5637 281.911 100.478C277.596 101.801 273.261 101.762 268.956 100.344C268.732 100.27 268.504 100.209 268.16 100.106C267.75 101.318 267.347 102.48 266.964 103.649C260.213 124.267 254.333 145.144 248.542 166.044C244.851 179.368 241.296 192.73 237.648 206.067C237.417 206.91 237.509 207.38 238.245 207.943C245.575 213.544 248.351 223.234 245.135 231.789C241.877 240.455 233.355 245.951 224.084 245.365C212.165 244.612 203.263 233.893 204.707 222.009C205.422 216.122 208.216 211.403 212.909 207.805C213.473 207.373 213.594 207.016 213.415 206.353C204.607 173.659 195.821 140.959 185.649 108.651C184.76 105.827 183.806 103.024 182.84 100.08L182.84 100.08ZM233.759 187.131C233.81 187.144 233.862 187.156 233.914 187.169C234.015 186.851 234.125 186.536 234.215 186.215C239.066 168.848 243.748 151.432 248.818 134.129C252.831 120.435 257.288 106.87 261.619 93.2704C262.733 89.7745 265.566 88.8841 268.627 90.8744C271.69 92.8653 274.992 93.4275 278.545 92.6194C286.005 90.9225 292.832 82.6752 287.034 73.0993C282.222 65.1513 272.665 60.4662 263.448 61.8029C259.593 62.362 256.338 63.9974 254.286 67.5078C252.476 70.6039 248.95 70.7845 246.821 67.883C244.563 64.8039 241.669 62.5138 238.194 60.959C232.601 58.4567 226.72 57.9564 220.728 58.748C213.879 59.6523 208.068 62.4732 203.893 68.2213C202.063 70.7413 198.414 70.4735 196.857 67.7542C195.132 64.7419 192.531 62.9852 189.242 62.1514C178.983 59.5491 166.735 65.7195 162.773 75.5359C162.253 76.825 161.88 78.2558 161.826 79.6363C161.621 84.8681 164.219 88.619 168.622 91.0973C173.18 93.6632 177.847 93.7877 182.361 90.8514C185.297 88.9418 188.156 89.8012 189.31 93.0833C190.751 97.1816 192.176 101.288 193.496 105.426C201.297 129.871 208.111 154.601 214.899 179.338C215.615 181.948 216.32 184.561 217.029 187.172C217.167 186.906 217.167 186.667 217.127 186.437C214.53 171.279 211.987 156.113 209.309 140.97C207.46 130.512 205.392 120.094 202.45 109.873C200.227 102.152 197.431 94.6798 192.832 87.9974C191.599 86.2064 190.357 84.4219 189.163 82.6058C188.85 82.1312 188.699 81.5507 188.473 81.0189C188.583 80.9275 188.693 80.8362 188.803 80.7448C189.638 81.2536 190.521 81.6982 191.299 82.2819C196.42 86.1236 200.281 91.0321 203.288 96.63C206.287 102.213 208.502 108.119 210.336 114.169C215.019 129.623 217.816 145.476 220.302 161.394C220.838 164.826 221.316 168.267 221.821 171.704C221.953 171.11 221.954 170.527 221.953 169.943C221.925 157.801 221.805 145.659 221.888 133.517C222.009 115.994 222.314 98.4723 223.644 80.989C223.866 78.0703 224.302 75.1671 224.691 72.2634C224.777 71.6247 225.086 71.016 225.292 70.3933C225.432 70.3933 225.573 70.3928 225.712 70.3923C225.918 71.0502 226.238 71.6958 226.31 72.3682C226.827 77.235 227.498 82.0969 227.735 86.9792C228.252 97.6236 228.711 108.276 228.881 118.931C229.111 133.277 229.049 147.629 229.106 161.978C229.119 165.214 229.108 168.45 229.108 171.685C229.183 171.568 229.202 171.44 229.223 171.311C230.609 162.629 231.884 153.928 233.409 145.271C235.486 133.482 238.018 121.787 241.868 110.423C244.411 102.915 247.465 95.6455 252.464 89.3624C254.863 86.3475 257.567 83.6463 260.802 81.516C261.256 81.2172 261.788 81.0371 262.284 80.8019C262.355 80.888 262.426 80.9746 262.498 81.0606C262.345 81.4609 262.245 81.8933 262.028 82.2546C261.512 83.1108 260.984 83.966 260.383 84.7639C254.802 92.1763 251.211 100.515 248.67 109.378C245.491 120.469 243.3 131.773 241.269 143.107C239.044 155.529 236.994 167.982 234.873 180.422C234.491 182.657 234.13 184.895 233.76 187.132L233.759 187.131ZM213.011 224.405C212.967 231.286 218.493 236.891 225.378 236.949C232.351 237.008 237.947 231.448 237.982 224.425C238.017 217.676 232.386 212.064 225.555 212.04C218.653 212.015 213.054 217.534 213.011 224.405L213.011 224.405Z" fill="#04C2C6"/>
<path d="M268.16 348.919C271.314 347.779 274.407 347.438 277.586 347.663C288.777 348.453 298.05 358.449 297.661 369.374C297.46 374.995 295.189 379.829 291.592 384.012C284.154 392.66 274.714 396.663 263.268 395.689C258.689 395.3 255.18 393.729 250.271 390.035C243.266 396.392 234.831 399.007 225.496 399C216.191 398.993 207.775 396.408 200.72 389.998C198.644 391.863 196.352 393.318 193.758 394.257C187.023 396.696 180.297 396.34 173.652 393.976C166.469 391.42 160.808 386.894 156.823 380.378C148.373 366.561 156.334 352.436 169.089 348.522C173.404 347.198 177.739 347.238 182.044 348.656C182.268 348.729 182.496 348.791 182.84 348.893C183.25 347.681 183.653 346.519 184.036 345.351C190.787 324.732 196.667 303.856 202.458 282.955C206.149 269.631 209.704 256.269 213.352 242.933C213.583 242.089 213.491 241.619 212.755 241.056C205.425 235.455 202.649 225.765 205.865 217.211C209.123 208.545 217.645 203.049 226.916 203.634C238.835 204.387 247.737 215.107 246.293 226.991C245.578 232.878 242.784 237.597 238.091 241.194C237.527 241.626 237.406 241.983 237.585 242.647C246.393 275.341 255.179 308.041 265.351 340.349C266.24 343.173 267.194 345.976 268.16 348.92L268.16 348.919ZM217.241 261.868C217.19 261.856 217.138 261.843 217.086 261.831C216.985 262.148 216.875 262.463 216.785 262.784C211.934 280.152 207.252 297.568 202.182 314.871C198.169 328.565 193.712 342.13 189.381 355.729C188.267 359.225 185.434 360.115 182.373 358.125C179.31 356.134 176.008 355.572 172.455 356.38C164.995 358.077 158.168 366.324 163.966 375.9C168.778 383.848 178.335 388.533 187.552 387.197C191.407 386.638 194.662 385.002 196.714 381.492C198.524 378.396 202.05 378.215 204.179 381.117C206.437 384.196 209.331 386.486 212.806 388.04C218.399 390.543 224.28 391.043 230.272 390.252C237.121 389.347 242.932 386.526 247.107 380.778C248.937 378.258 252.586 378.526 254.143 381.245C255.868 384.258 258.469 386.014 261.757 386.848C272.017 389.45 284.265 383.28 288.227 373.464C288.747 372.174 289.12 370.744 289.174 369.363C289.379 364.131 286.781 360.381 282.378 357.902C277.82 355.336 273.153 355.212 268.639 358.148C265.703 360.058 262.844 359.198 261.69 355.916C260.249 351.818 258.824 347.712 257.504 343.574C249.703 319.129 242.889 294.399 236.101 269.661C235.385 267.051 234.68 264.438 233.971 261.827C233.833 262.094 233.833 262.332 233.873 262.563C236.47 277.72 239.013 292.887 241.691 308.03C243.54 318.487 245.608 328.906 248.55 339.127C250.773 346.848 253.569 354.32 258.168 361.002C259.401 362.793 260.643 364.578 261.837 366.394C262.15 366.868 262.301 367.449 262.527 367.981C262.417 368.072 262.307 368.163 262.197 368.255C261.362 367.746 260.479 367.301 259.701 366.718C254.58 362.876 250.719 357.967 247.712 352.37C244.713 346.787 242.498 340.88 240.664 334.831C235.981 319.377 233.184 303.523 230.698 287.606C230.162 284.174 229.684 280.733 229.179 277.295C229.047 277.889 229.046 278.473 229.047 279.056C229.075 291.198 229.195 303.341 229.112 315.482C228.991 333.005 228.686 350.527 227.356 368.011C227.134 370.929 226.698 373.832 226.309 376.736C226.223 377.375 225.914 377.984 225.708 378.606C225.568 378.606 225.427 378.607 225.288 378.607C225.082 377.949 224.762 377.304 224.69 376.631C224.173 371.765 223.502 366.903 223.265 362.02C222.748 351.376 222.289 340.723 222.119 330.069C221.889 315.722 221.951 301.371 221.894 287.022C221.881 283.786 221.892 280.55 221.892 277.314C221.817 277.432 221.798 277.56 221.777 277.688C220.391 286.37 219.116 295.071 217.591 303.729C215.514 315.518 212.982 327.212 209.132 338.576C206.588 346.085 203.535 353.354 198.536 359.637C196.137 362.652 193.433 365.353 190.198 367.484C189.744 367.782 189.212 367.962 188.716 368.198C188.645 368.112 188.574 368.025 188.502 367.939C188.655 367.539 188.755 367.106 188.972 366.745C189.488 365.889 190.016 365.034 190.617 364.236C196.198 356.823 199.789 348.485 202.33 339.622C205.509 328.53 207.7 317.227 209.731 305.892C211.956 293.471 214.006 281.017 216.127 268.577C216.509 266.343 216.87 264.104 217.24 261.868L217.241 261.868ZM237.989 224.595C238.033 217.713 232.507 212.109 225.622 212.051C218.649 211.992 213.053 217.551 213.018 224.575C212.983 231.324 218.614 236.935 225.445 236.96C232.347 236.985 237.946 231.466 237.989 224.595H237.989Z" fill="#E70000"/>
<path d="M101.081 267.159C102.221 270.314 102.562 273.406 102.337 276.586C101.547 287.777 91.551 297.05 80.6256 296.66C75.0052 296.46 70.171 294.189 65.9883 290.592C57.3402 283.154 53.3365 273.713 54.3109 262.267C54.7005 257.688 56.2713 254.18 59.9655 249.27C53.608 242.265 50.9935 233.831 51.0004 224.495C51.0074 215.19 53.592 206.775 60.0018 199.72C58.1371 197.643 56.6817 195.352 55.7427 192.758C53.3045 186.023 53.6599 179.297 56.0243 172.652C58.5801 165.469 63.1059 159.807 69.6221 155.822C83.4389 147.372 97.5642 155.334 101.478 168.088C102.802 172.403 102.762 176.739 101.344 181.043C101.271 181.267 101.209 181.495 101.107 181.84C102.319 182.249 103.481 182.652 104.649 183.035C125.268 189.787 146.144 195.667 167.045 201.457C180.369 205.149 193.731 208.703 207.067 212.352C207.911 212.583 208.381 212.491 208.944 211.754C214.545 204.425 224.235 201.649 232.789 204.864C241.455 208.122 246.951 216.644 246.366 225.915C245.613 237.835 234.893 246.736 223.009 245.293C217.122 244.577 212.403 241.783 208.806 237.09C208.374 236.527 208.017 236.406 207.353 236.584C174.659 245.392 141.959 254.179 109.651 264.351C106.827 265.24 104.024 266.194 101.08 267.16L101.081 267.159ZM188.132 216.241C188.144 216.189 188.157 216.137 188.169 216.086C187.852 215.985 187.537 215.874 187.216 215.785C169.848 210.934 152.432 206.252 135.129 201.181C121.435 197.169 107.87 192.712 94.2709 188.38C90.775 187.267 89.8845 184.433 91.8749 181.372C93.8657 178.31 94.428 175.007 93.6199 171.455C91.923 163.995 83.6757 157.168 74.0998 162.966C66.1518 167.778 61.4667 177.335 62.8034 186.552C63.3625 190.407 64.9979 193.661 68.5083 195.713C71.6044 197.523 71.785 201.05 68.8835 203.178C65.8044 205.437 63.5143 208.33 61.9595 211.806C59.4572 217.398 58.9569 223.28 59.7485 229.272C60.6528 236.12 63.4736 241.932 69.2218 246.106C71.7418 247.936 71.474 251.586 68.7547 253.143C65.7424 254.867 63.9857 257.469 63.1519 260.757C60.5496 271.017 66.72 283.264 76.5364 287.226C77.8255 287.746 79.2563 288.119 80.6368 288.173C85.8686 288.378 89.6195 285.78 92.0978 281.378C94.6637 276.82 94.7882 272.152 91.8519 267.639C89.9423 264.703 90.8017 261.844 94.0838 260.69C98.1821 259.248 102.288 257.824 106.426 256.504C130.871 248.703 155.601 241.888 180.339 235.101C182.949 234.385 185.562 233.68 188.173 232.97C187.906 232.833 187.668 232.833 187.437 232.873C172.28 235.47 157.113 238.012 141.97 240.69C131.513 242.54 121.094 244.607 110.873 247.55C103.152 249.772 95.6803 252.568 88.9979 257.168C87.2069 258.4 85.4223 259.642 83.6062 260.837C83.1316 261.149 82.5512 261.301 82.0194 261.526C81.928 261.416 81.8367 261.307 81.7453 261.197C82.2541 260.362 82.6987 259.478 83.2824 258.7C87.1241 253.579 92.0326 249.719 97.6305 246.712C103.213 243.713 109.12 241.497 115.169 239.664C130.623 234.98 146.477 232.184 162.394 229.697C165.826 229.161 169.267 228.683 172.705 228.179C172.111 228.047 171.527 228.046 170.944 228.047C158.802 228.075 146.659 228.195 134.518 228.111C116.995 227.99 99.4728 227.686 81.9895 226.356C79.0708 226.134 76.1676 225.698 73.2639 225.309C72.6252 225.223 72.0165 224.914 71.3938 224.708C71.3938 224.567 71.3933 224.427 71.3927 224.287C72.0507 224.082 72.6963 223.762 73.3686 223.69C78.2354 223.172 83.0974 222.502 87.9797 222.265C98.6241 221.747 109.277 221.289 119.931 221.118C134.278 220.889 148.629 220.951 162.978 220.893C166.214 220.881 169.45 220.891 172.686 220.891C172.568 220.817 172.44 220.798 172.312 220.777C163.63 219.39 154.929 218.115 146.271 216.59C134.482 214.514 122.788 211.981 111.424 208.132C103.915 205.588 96.646 202.534 90.3629 197.535C87.348 195.137 84.6468 192.433 82.5165 189.197C82.2177 188.744 82.0376 188.212 81.8024 187.716C81.8885 187.645 81.9751 187.573 82.0611 187.502C82.4614 187.655 82.8938 187.755 83.2551 187.972C84.1113 188.488 84.9664 189.016 85.7644 189.617C93.1768 195.197 101.515 198.788 110.378 201.329C121.47 204.509 132.773 206.7 144.108 208.731C156.529 210.956 168.983 213.005 181.423 215.127C183.657 215.508 185.896 215.869 188.132 216.24L188.132 216.241ZM225.405 236.989C232.287 237.032 237.891 231.507 237.949 224.622C238.008 217.648 232.449 212.053 225.425 212.017C218.676 211.983 213.065 217.613 213.04 224.445C213.015 231.347 218.534 236.945 225.405 236.988L225.405 236.989Z" fill="#007ED4"/>
<path d="M349.919 181.84C348.779 178.686 348.438 175.593 348.663 172.414C349.453 161.223 359.449 151.95 370.374 152.339C375.995 152.54 380.829 154.811 385.012 158.408C393.66 165.845 397.663 175.286 396.689 186.732C396.3 191.311 394.729 194.82 391.035 199.729C397.392 206.734 400.007 215.169 400 224.504C399.993 233.809 397.408 242.225 390.998 249.28C392.863 251.356 394.318 253.648 395.257 256.242C397.696 262.977 397.34 269.703 394.976 276.348C392.42 283.531 387.894 289.192 381.378 293.177C367.561 301.627 353.436 293.666 349.522 280.911C348.198 276.596 348.238 272.261 349.656 267.956C349.729 267.732 349.791 267.504 349.893 267.16C348.681 266.75 347.519 266.347 346.351 265.964C325.732 259.213 304.856 253.333 283.955 247.542C270.631 243.851 257.269 240.296 243.933 236.648C243.089 236.417 242.619 236.509 242.056 237.245C236.455 244.575 226.765 247.351 218.211 244.135C209.545 240.877 204.049 232.355 204.634 223.084C205.387 211.165 216.107 202.263 227.991 203.707C233.878 204.422 238.597 207.216 242.194 211.909C242.626 212.473 242.983 212.594 243.647 212.415C276.341 203.607 309.041 194.821 341.349 184.649C344.173 183.76 346.976 182.806 349.92 181.84L349.919 181.84ZM262.868 232.759C262.856 232.81 262.843 232.862 262.831 232.914C263.148 233.015 263.463 233.125 263.784 233.215C281.152 238.066 298.568 242.748 315.871 247.818C329.565 251.831 343.13 256.288 356.729 260.619C360.225 261.733 361.115 264.566 359.125 267.627C357.134 270.69 356.572 273.992 357.38 277.545C359.077 285.005 367.324 291.832 376.9 286.034C384.848 281.222 389.533 271.665 388.197 262.448C387.638 258.593 386.002 255.338 382.492 253.286C379.396 251.476 379.215 247.95 382.117 245.821C385.196 243.563 387.486 240.669 389.04 237.194C391.543 231.601 392.043 225.72 391.252 219.728C390.347 212.879 387.526 207.068 381.778 202.893C379.258 201.063 379.526 197.414 382.245 195.857C385.258 194.132 387.014 191.531 387.848 188.243C390.45 177.983 384.28 165.735 374.464 161.773C373.174 161.253 371.744 160.88 370.363 160.826C365.131 160.621 361.381 163.219 358.902 167.622C356.336 172.18 356.212 176.847 359.148 181.361C361.058 184.297 360.198 187.156 356.916 188.31C352.818 189.751 348.712 191.176 344.574 192.496C320.129 200.297 295.399 207.111 270.661 213.899C268.051 214.615 265.438 215.32 262.827 216.029C263.094 216.167 263.332 216.167 263.563 216.127C278.72 213.53 293.887 210.987 309.03 208.309C319.487 206.46 329.906 204.392 340.127 201.45C347.848 199.227 355.32 196.431 362.002 191.832C363.793 190.599 365.578 189.357 367.394 188.163C367.868 187.85 368.449 187.699 368.981 187.473C369.072 187.583 369.163 187.693 369.255 187.803C368.746 188.638 368.301 189.521 367.718 190.299C363.876 195.42 358.967 199.281 353.37 202.288C347.787 205.287 341.88 207.502 335.831 209.336C320.377 214.019 304.523 216.816 288.606 219.302C285.174 219.838 281.733 220.316 278.295 220.821C278.889 220.953 279.473 220.954 280.056 220.953C292.198 220.925 304.341 220.805 316.482 220.888C334.005 221.009 351.527 221.314 369.011 222.644C371.929 222.866 374.832 223.302 377.736 223.691C378.375 223.777 378.984 224.086 379.606 224.292C379.606 224.432 379.607 224.573 379.607 224.712C378.949 224.918 378.304 225.238 377.631 225.31C372.765 225.827 367.903 226.498 363.02 226.735C352.376 227.252 341.723 227.711 331.069 227.881C316.722 228.111 302.371 228.049 288.022 228.106C284.786 228.119 281.55 228.108 278.314 228.108C278.432 228.183 278.56 228.202 278.688 228.223C287.37 229.609 296.071 230.884 304.729 232.409C316.518 234.486 328.212 237.018 339.576 240.868C347.085 243.412 354.354 246.465 360.637 251.464C363.652 253.863 366.353 256.567 368.484 259.802C368.782 260.256 368.962 260.788 369.198 261.284C369.112 261.355 369.025 261.426 368.939 261.498C368.539 261.345 368.106 261.245 367.745 261.028C366.889 260.512 366.034 259.984 365.236 259.383C357.823 253.802 349.485 250.211 340.622 247.67C329.53 244.491 318.227 242.3 306.892 240.269C294.471 238.044 282.017 235.994 269.577 233.873C267.343 233.491 265.104 233.13 262.868 232.76L262.868 232.759ZM225.595 212.011C218.713 211.967 213.109 217.493 213.051 224.378C212.992 231.351 218.551 236.947 225.575 236.982C232.324 237.017 237.935 231.386 237.96 224.555C237.985 217.653 232.466 212.054 225.595 212.011L225.595 212.011Z" fill="#FF8100"/>
<path fill-rule="evenodd" clip-rule="evenodd" d="M225.5 246C237.374 246 247 236.374 247 224.5C247 212.626 237.374 203 225.5 203C213.626 203 204 212.626 204 224.5C204 236.374 213.626 246 225.5 246ZM225.5 236C231.851 236 237 230.851 237 224.5C237 218.149 231.851 213 225.5 213C219.149 213 214 218.149 214 224.5C214 230.851 219.149 236 225.5 236Z" fill="white"/>
</svg>
