<svg width="450" height="450" viewBox="0 0 450 450" fill="none" xmlns="http://www.w3.org/2000/svg">
<rect width="450" height="450" fill="black"/>
<path d="M182.637 100.549C179.483 101.689 176.39 102.03 173.211 101.805C162.019 101.015 152.747 91.0188 153.136 80.0933C153.336 74.4729 155.607 69.6388 159.205 65.4561C166.642 56.808 176.083 52.8043 187.529 53.7786C192.108 54.1682 195.617 55.739 200.526 59.4332C207.531 53.0758 215.966 50.4612 225.301 50.4682C234.606 50.4751 243.021 53.0598 250.077 59.4696C252.153 57.6048 254.445 56.1495 257.039 55.2104C263.774 52.7722 270.5 53.1276 277.145 55.4921C284.327 58.0479 289.989 62.5737 293.974 69.0898C302.424 82.9067 294.463 97.032 281.708 100.946C277.393 102.27 273.057 102.23 268.753 100.812C268.529 100.738 268.301 100.677 267.957 100.574C267.547 101.787 267.144 102.948 266.761 104.117C260.01 124.736 254.13 145.612 248.339 166.512C244.648 179.837 241.093 193.199 237.445 206.535C237.214 207.378 237.306 207.849 238.042 208.411C245.372 214.013 248.148 223.702 244.932 232.257C241.674 240.923 233.152 246.419 223.881 245.833C211.962 245.08 203.06 234.361 204.504 222.477C205.219 216.59 208.013 211.871 212.706 208.274C213.27 207.842 213.391 207.485 213.212 206.821C204.404 174.127 195.618 141.427 185.446 109.119C184.557 106.295 183.603 103.493 182.637 100.549ZM212.808 224.873C212.764 231.755 218.29 237.359 225.175 237.417C232.148 237.476 237.743 231.917 237.779 224.893C237.814 218.144 232.183 212.533 225.352 212.508C218.45 212.483 212.85 218.002 212.808 224.873Z" fill="#04C2C6"/>
<path d="M267.832 349.327C270.986 348.187 274.079 347.846 277.258 348.071C288.449 348.861 297.722 358.857 297.333 369.783C297.132 375.403 294.861 380.237 291.264 384.42C283.826 393.068 274.386 397.072 262.94 396.097C258.361 395.708 254.852 394.137 249.942 390.443C242.938 396.8 234.503 399.415 225.168 399.408C215.862 399.401 207.447 396.816 200.392 390.406C198.315 392.271 196.024 393.726 193.43 394.666C186.695 397.104 179.969 396.748 173.324 394.384C166.141 391.828 160.48 387.302 156.495 380.786C148.045 366.969 156.006 352.844 168.76 348.93C173.075 347.606 177.411 347.646 181.716 349.064C181.939 349.138 182.168 349.199 182.512 349.302C182.922 348.089 183.325 346.928 183.707 345.759C190.459 325.14 196.339 304.264 202.13 283.364C205.821 270.039 209.376 256.677 213.024 243.341C213.255 242.498 213.163 242.027 212.426 241.465C205.097 235.863 202.321 226.174 205.537 217.619C208.794 208.953 217.317 203.457 226.588 204.043C238.507 204.796 247.408 215.515 245.965 227.399C245.25 233.286 242.456 238.005 237.762 241.602C237.199 242.034 237.078 242.391 237.257 243.055C246.065 275.749 254.851 308.449 265.023 340.757C265.912 343.581 266.865 346.383 267.832 349.327ZM237.661 225.003C237.705 218.121 232.179 212.517 225.294 212.459C218.32 212.4 212.725 217.959 212.689 224.983C212.655 231.732 218.286 237.343 225.117 237.368C232.019 237.393 237.618 231.874 237.661 225.003Z" fill="#E70000"/>
<path d="M101.55 267.363C102.69 270.518 103.031 273.61 102.806 276.79C102.016 287.981 92.0197 297.254 81.0943 296.864C75.4739 296.664 70.6397 294.393 66.457 290.796C57.8089 283.358 53.8053 273.917 54.7796 262.472C55.1692 257.893 56.74 254.384 60.4342 249.474C54.0768 242.469 51.4622 234.035 51.4691 224.7C51.4761 215.394 54.0607 206.979 60.4705 199.924C58.6058 197.847 57.1505 195.556 56.2114 192.962C53.7732 186.227 54.1286 179.501 56.4931 172.856C59.0489 165.673 63.5747 160.011 70.0908 156.026C83.9077 147.576 98.033 155.538 101.947 168.292C103.271 172.607 103.231 176.943 101.813 181.247C101.739 181.471 101.678 181.699 101.575 182.044C102.788 182.453 103.949 182.856 105.118 183.239C125.737 189.991 146.613 195.871 167.513 201.661C180.837 205.353 194.2 208.907 207.536 212.556C208.379 212.787 208.85 212.695 209.412 211.958C215.014 204.629 224.703 201.853 233.258 205.068C241.924 208.326 247.42 216.848 246.834 226.119C246.081 238.039 235.362 246.94 223.478 245.497C217.591 244.782 212.872 241.987 209.275 237.294C208.843 236.731 208.486 236.61 207.822 236.789C175.128 245.596 142.428 254.383 110.12 264.555C107.296 265.444 104.494 266.397 101.55 267.363ZM225.874 237.193C232.756 237.236 238.36 231.711 238.418 224.826C238.477 217.852 232.917 212.257 225.894 212.221C219.145 212.187 213.534 217.817 213.509 224.649C213.484 231.551 219.003 237.15 225.874 237.193Z" fill="#007ED4"/>
<path d="M349.919 181.84C348.779 178.686 348.438 175.593 348.663 172.414C349.453 161.223 359.449 151.95 370.374 152.339C375.995 152.54 380.829 154.811 385.012 158.408C393.66 165.845 397.663 175.286 396.689 186.732C396.3 191.311 394.729 194.82 391.035 199.729C397.392 206.734 400.007 215.169 400 224.504C399.993 233.809 397.408 242.225 390.998 249.28C392.863 251.356 394.318 253.648 395.257 256.242C397.696 262.977 397.34 269.703 394.976 276.348C392.42 283.531 387.894 289.192 381.378 293.177C367.561 301.627 353.436 293.666 349.522 280.911C348.198 276.596 348.238 272.261 349.656 267.956C349.729 267.732 349.791 267.504 349.893 267.16C348.681 266.75 347.519 266.347 346.351 265.964C325.732 259.213 304.856 253.333 283.955 247.542C270.631 243.851 257.269 240.296 243.933 236.648C243.089 236.417 242.619 236.509 242.056 237.245C236.455 244.575 226.765 247.351 218.211 244.135C209.545 240.877 204.049 232.355 204.634 223.084C205.387 211.165 216.107 202.263 227.991 203.707C233.878 204.422 238.597 207.216 242.194 211.909C242.626 212.473 242.983 212.594 243.647 212.415C276.341 203.607 309.041 194.821 341.349 184.649C344.173 183.76 346.975 182.806 349.919 181.84ZM225.595 212.011C218.713 211.967 213.109 217.493 213.051 224.378C212.992 231.351 218.551 236.947 225.575 236.982C232.324 237.017 237.935 231.386 237.96 224.555C237.985 217.653 232.466 212.054 225.595 212.011Z" fill="#FF8100"/>
<path fill-rule="evenodd" clip-rule="evenodd" d="M225.5 248C238.479 248 249 237.479 249 224.5C249 211.521 238.479 201 225.5 201C212.521 201 202 211.521 202 224.5C202 237.479 212.521 248 225.5 248ZM225.5 236C231.851 236 237 230.851 237 224.5C237 218.149 231.851 213 225.5 213C219.149 213 214 218.149 214 224.5C214 230.851 219.149 236 225.5 236Z" fill="white"/>
</svg>
